<svg width="64" height="64" viewBox="0 0 64 64"
    xmlns="http://www.w3.org/2000/svg">
    <!-- Gradient Definitions -->
    <defs>
        <radialGradient id="mainGradient" cx="50%" cy="30%" r="60%">
            <stop offset="0%" stop-color="#FFD700"/>
            <stop offset="70%" stop-color="#F39C12"/>
            <stop offset="100%" stop-color="#E67E22"/>
        </radialGradient>

        <linearGradient id="codeGradient" x1="0%" y1="0%" x2="100%" y2="100%">
            <stop offset="0%" stop-color="#FFFFFF"/>
            <stop offset="100%" stop-color="#F8F9FA"/>
        </linearGradient>

        <filter id="shadow">
            <feDropShadow dx="2" dy="2" stdDeviation="2" flood-color="rgba(0,0,0,0.3)"/>
        </filter>
    </defs>

    <!-- Background Circle with Gradient -->
    <circle cx="32" cy="32" r="30" fill="url(#mainGradient)" filter="url(#shadow)"/>

    <!-- Inner Ring -->
    <circle cx="32" cy="32" r="25" fill="none" stroke="rgba(255,255,255,0.2)" stroke-width="1"/>

    <!-- Letter 'S' for Sowrav -->
    <path d="M22 20 Q18 20 18 24 Q18 28 22 28 L38 28 Q42 28 42 32 Q42 36 38 36 L26 36 Q22 36 22 40 Q22 44 26 44 L42 44" stroke="url(#codeGradient)" stroke-width="4" fill="none" stroke-linecap="round" stroke-linejoin="round"/>

    <!-- Code Accent Dots -->
    <circle cx="20" cy="16" r="2" fill="rgba(255,255,255,0.8)"/>
    <circle cx="44" cy="16" r="2" fill="rgba(255,255,255,0.8)"/>
    <circle cx="20" cy="48" r="2" fill="rgba(255,255,255,0.8)"/>
    <circle cx="44" cy="48" r="2" fill="rgba(255,255,255,0.8)"/>

    <!-- Subtle Inner Glow -->
    <circle cx="32" cy="32" r="22" fill="none" stroke="rgba(255,255,255,0.1)" stroke-width="2"/>

    <!-- Highlight -->
    <ellipse cx="26" cy="18" rx="6" ry="10" fill="rgba(255,255,255,0.25)" transform="rotate(-25 26 18)"/>
</svg>
