<svg xmlns="http://www.w3.org/2000/svg" xmlns:xlink="http://www.w3.org/1999/xlink" width="500" zoomAndPan="magnify" viewBox="0 0 375 374.999991" height="500" preserveAspectRatio="xMidYMid meet" version="1.0"><defs><g/><clipPath id="8f89fbe217"><path d="M 62.476562 127.058594 L 160.726562 127.058594 L 160.726562 256.808594 L 62.476562 256.808594 Z M 62.476562 127.058594 " clip-rule="nonzero"/></clipPath></defs><g clip-path="url(#8f89fbe217)"><path fill="#ff5900" d="M 160.734375 214.355469 C 160.734375 220.070312 159.617188 225.625 157.414062 230.855469 C 155.289062 235.902344 152.25 240.429688 148.382812 244.320312 C 144.515625 248.207031 140.007812 251.261719 134.992188 253.394531 C 129.789062 255.605469 124.273438 256.726562 118.589844 256.726562 L 109.125 256.726562 L 109.125 223.871094 L 81.421875 223.871094 L 81.421875 256.726562 L 62.476562 256.726562 L 62.476562 171.964844 L 81.425781 171.964844 L 81.425781 204.820312 L 118.585938 204.820312 C 123.8125 204.820312 128.074219 209.085938 128.074219 214.335938 L 128.074219 235.667969 C 136.230469 232.019531 141.816406 223.875 141.816406 214.390625 C 141.816406 201.519531 131.390625 191.085938 118.585938 191.085938 L 118.492188 191.085938 L 118.492188 191.019531 C 114.1875 191.019531 110.042969 190.175781 106.117188 188.503906 C 102.332031 186.894531 98.9375 184.59375 96.023438 181.664062 C 93.109375 178.734375 90.816406 175.316406 89.214844 171.511719 C 87.554688 167.566406 86.714844 163.378906 86.714844 159.074219 C 86.714844 154.765625 87.554688 150.578125 89.214844 146.636719 C 90.816406 142.832031 93.105469 139.417969 96.019531 136.484375 C 98.933594 133.554688 102.332031 131.253906 106.117188 129.640625 C 110.035156 127.976562 114.199219 127.128906 118.484375 127.128906 C 122.769531 127.128906 126.933594 127.976562 130.855469 129.644531 C 134.640625 131.253906 138.035156 133.558594 140.953125 136.488281 C 143.871094 139.417969 146.160156 142.828125 147.761719 146.628906 C 149.417969 150.578125 150.261719 154.738281 150.261719 159.0625 L 131.332031 159.0625 C 131.332031 152.003906 125.554688 146.152344 118.472656 146.152344 C 111.390625 146.152344 105.621094 151.949219 105.621094 159.066406 C 105.621094 166.101562 111.242188 171.839844 118.1875 171.984375 L 118.1875 171.960938 L 118.585938 171.960938 C 124.269531 171.960938 129.789062 173.089844 134.996094 175.304688 C 140.015625 177.4375 144.523438 180.5 148.390625 184.390625 C 152.257812 188.277344 155.296875 192.808594 157.421875 197.855469 C 159.621094 203.085938 160.734375 208.636719 160.734375 214.355469 Z M 160.734375 214.355469 " fill-opacity="1" fill-rule="nonzero"/></g><g fill="#ffffff" fill-opacity="1"><g transform="translate(171.677192, 197.432847)"><g><path d="M 21.660156 -22.117188 C 21.660156 -24.019531 20.695312 -24.980469 18.769531 -24.980469 L 11.070312 -24.980469 C 5.292969 -24.980469 2.429688 -22.453125 2.453125 -17.375 C 2.453125 -12.175781 5.367188 -9.578125 11.167969 -9.601562 L 13.042969 -9.601562 C 14.945312 -9.578125 15.882812 -8.929688 15.882812 -7.652344 C 15.859375 -6.351562 14.871094 -5.703125 12.972656 -5.703125 L 5.199219 -5.703125 C 3.34375 -5.679688 2.429688 -4.667969 2.40625 -2.671875 C 2.429688 -0.890625 3.371094 0 5.222656 -0.0234375 L 13.019531 0 C 18.722656 -0.0234375 21.585938 -2.574219 21.609375 -7.699219 C 21.636719 -12.730469 18.769531 -15.304688 13.019531 -15.402344 L 11.140625 -15.402344 C 9.167969 -15.402344 8.183594 -16.027344 8.183594 -17.253906 C 8.183594 -18.554688 9.167969 -19.203125 11.117188 -19.203125 L 18.84375 -19.203125 C 20.695312 -19.253906 21.636719 -20.214844 21.660156 -22.117188 Z M 21.660156 -22.117188 "/></g></g></g><g fill="#ffffff" fill-opacity="1"><g transform="translate(195.766526, 197.432847)"><g><path d="M 2.40625 -16.316406 L 2.40625 -8.664062 C 2.40625 -2.886719 5.269531 0 11.023438 0 L 14.96875 0 C 20.746094 0 23.632812 -2.960938 23.632812 -8.855469 L 23.632812 -16.339844 C 23.632812 -22.140625 20.71875 -25.027344 14.921875 -25.027344 L 11.09375 -25.027344 C 5.292969 -25.027344 2.40625 -22.117188 2.40625 -16.316406 Z M 14.921875 -19.203125 C 16.871094 -19.203125 17.855469 -18.265625 17.855469 -16.414062 L 17.855469 -8.734375 C 17.855469 -6.761719 16.871094 -5.777344 14.921875 -5.777344 L 11.023438 -5.777344 C 9.121094 -5.777344 8.183594 -6.761719 8.183594 -8.734375 L 8.183594 -16.339844 C 8.183594 -18.242188 9.121094 -19.203125 11.023438 -19.203125 Z M 14.921875 -19.203125 "/></g></g></g><g fill="#ffffff" fill-opacity="1"><g transform="translate(221.805148, 197.432847)"><g><path d="M 32.199219 0.046875 C 34.148438 0.0234375 35.136719 -0.960938 35.136719 -2.863281 L 35.136719 -22.042969 C 35.136719 -23.992188 34.199219 -24.980469 32.296875 -24.980469 C 30.347656 -24.980469 29.359375 -23.992188 29.359375 -22.042969 L 29.359375 -5.777344 L 24.59375 -5.777344 C 22.644531 -5.777344 21.660156 -6.761719 21.660156 -8.734375 L 21.660156 -22.09375 C 21.660156 -24.042969 20.695312 -25.027344 18.769531 -25.027344 C 16.847656 -25.027344 15.882812 -24.066406 15.882812 -22.140625 L 15.929688 -5.777344 L 11.117188 -5.777344 C 9.167969 -5.777344 8.183594 -6.761719 8.183594 -8.734375 L 8.183594 -22.09375 C 8.183594 -24.042969 7.21875 -25.027344 5.292969 -25.027344 C 3.371094 -25.027344 2.40625 -24.066406 2.40625 -22.140625 L 2.40625 -8.855469 C 2.40625 -2.960938 5.292969 0 11.070312 0 Z M 32.199219 0.046875 "/></g></g></g><g fill="#ffffff" fill-opacity="1"><g transform="translate(259.346968, 197.432847)"><g><path d="M 21.660156 -17.328125 L 21.660156 -22.117188 C 21.660156 -24.019531 20.695312 -24.957031 18.769531 -24.957031 L 11.070312 -24.980469 C 5.292969 -24.980469 2.40625 -22.019531 2.40625 -16.125 L 2.40625 -2.839844 C 2.40625 -0.914062 3.371094 0.046875 5.292969 0.046875 C 7.21875 0.046875 8.183594 -0.9375 8.183594 -2.886719 L 8.183594 -16.246094 C 8.183594 -18.21875 9.167969 -19.203125 11.117188 -19.203125 L 15.882812 -19.203125 L 15.882812 -17.328125 C 15.882812 -15.378906 16.871094 -14.390625 18.820312 -14.390625 C 20.71875 -14.390625 21.660156 -15.378906 21.660156 -17.328125 Z M 21.660156 -17.328125 "/></g></g></g><g fill="#ffffff" fill-opacity="1"><g transform="translate(283.436302, 197.432847)"><g><path d="M 23.535156 -2.886719 L 23.535156 -22.117188 C 23.535156 -24.019531 22.574219 -24.957031 20.648438 -24.957031 L 11.070312 -24.980469 C 5.292969 -24.980469 2.40625 -22.019531 2.40625 -16.125 L 2.40625 -2.839844 C 2.40625 -0.914062 3.371094 0.046875 5.292969 0.046875 C 7.21875 0.046875 8.183594 -0.9375 8.183594 -2.886719 L 8.207031 -7.699219 L 17.761719 -7.675781 L 17.761719 -2.886719 C 17.761719 -0.9375 18.746094 0.046875 20.71875 0.046875 C 22.597656 0.046875 23.535156 -0.9375 23.535156 -2.886719 Z M 8.183594 -13.476562 L 8.183594 -16.246094 C 8.183594 -18.21875 9.167969 -19.203125 11.117188 -19.203125 L 17.761719 -19.203125 L 17.761719 -13.476562 Z M 8.183594 -13.476562 "/></g></g></g><g fill="#ffffff" fill-opacity="1"><g transform="translate(309.474924, 197.432847)"><g><path d="M 18.433594 -25.050781 C 17.253906 -25.003906 16.484375 -24.644531 16.074219 -23.992188 C 15.691406 -23.34375 13.886719 -18.21875 10.683594 -8.617188 C 7.4375 -18.21875 5.65625 -23.367188 5.292969 -24.042969 C 4.933594 -24.714844 4.164062 -25.050781 2.9375 -25.050781 C 1.011719 -25.050781 0.046875 -24.089844 0.046875 -22.164062 L 7.773438 -1.902344 C 8.300781 -0.816406 8.878906 -0.214844 9.53125 -0.0976562 C 10.179688 0 10.902344 0.0234375 11.648438 -0.046875 C 12.394531 -0.121094 13.019531 -0.722656 13.476562 -1.902344 L 21.273438 -22.117188 C 21.273438 -24.066406 20.335938 -25.050781 18.433594 -25.050781 Z M 18.433594 -25.050781 "/></g></g></g><g fill="#ffffff" fill-opacity="1"><g transform="translate(171.677192, 241.922028)"><g><path d="M 5.246094 0.046875 C 7.195312 0.046875 8.183594 -0.9375 8.183594 -2.886719 L 8.183594 -19.203125 L 14.921875 -19.203125 C 16.871094 -19.203125 17.855469 -18.21875 17.855469 -16.246094 L 17.855469 -2.886719 C 17.855469 -0.9375 18.820312 0.046875 20.746094 0.046875 C 22.667969 0.046875 23.632812 -0.914062 23.632812 -2.839844 L 23.632812 -16.125 C 23.632812 -22.019531 20.746094 -24.980469 14.96875 -24.980469 L 8.183594 -24.980469 L 8.183594 -29.792969 C 8.183594 -31.742188 7.21875 -32.730469 5.292969 -32.730469 C 3.371094 -32.730469 2.40625 -31.765625 2.40625 -29.867188 L 2.40625 -2.886719 C 2.40625 -0.9375 3.34375 0.046875 5.246094 0.046875 Z M 5.246094 0.046875 "/></g></g></g><g fill="#ffffff" fill-opacity="1"><g transform="translate(197.715813, 241.922028)"><g><path d="M 23.535156 -2.886719 L 23.535156 -22.117188 C 23.535156 -24.019531 22.574219 -24.957031 20.648438 -24.957031 L 11.070312 -24.980469 C 5.292969 -24.980469 2.40625 -22.019531 2.40625 -16.125 L 2.40625 -2.839844 C 2.40625 -0.914062 3.371094 0.046875 5.292969 0.046875 C 7.21875 0.046875 8.183594 -0.9375 8.183594 -2.886719 L 8.207031 -7.699219 L 17.761719 -7.675781 L 17.761719 -2.886719 C 17.761719 -0.9375 18.746094 0.046875 20.71875 0.046875 C 22.597656 0.046875 23.535156 -0.9375 23.535156 -2.886719 Z M 8.183594 -13.476562 L 8.183594 -16.246094 C 8.183594 -18.21875 9.167969 -19.203125 11.117188 -19.203125 L 17.761719 -19.203125 L 17.761719 -13.476562 Z M 8.183594 -13.476562 "/></g></g></g><g fill="#ffffff" fill-opacity="1"><g transform="translate(223.754435, 241.922028)"><g><path d="M 21.660156 -22.117188 C 21.660156 -24.019531 20.695312 -24.980469 18.769531 -24.980469 L 11.070312 -24.980469 C 5.292969 -24.980469 2.429688 -22.453125 2.453125 -17.375 C 2.453125 -12.175781 5.367188 -9.578125 11.167969 -9.601562 L 13.042969 -9.601562 C 14.945312 -9.578125 15.882812 -8.929688 15.882812 -7.652344 C 15.859375 -6.351562 14.871094 -5.703125 12.972656 -5.703125 L 5.199219 -5.703125 C 3.34375 -5.679688 2.429688 -4.667969 2.40625 -2.671875 C 2.429688 -0.890625 3.371094 0 5.222656 -0.0234375 L 13.019531 0 C 18.722656 -0.0234375 21.585938 -2.574219 21.609375 -7.699219 C 21.636719 -12.730469 18.769531 -15.304688 13.019531 -15.402344 L 11.140625 -15.402344 C 9.167969 -15.402344 8.183594 -16.027344 8.183594 -17.253906 C 8.183594 -18.554688 9.167969 -19.203125 11.117188 -19.203125 L 18.84375 -19.203125 C 20.695312 -19.253906 21.636719 -20.214844 21.660156 -22.117188 Z M 21.660156 -22.117188 "/></g></g></g><g fill="#ffffff" fill-opacity="1"><g transform="translate(247.843769, 241.922028)"><g><path d="M 23.535156 -2.886719 L 23.535156 -22.117188 C 23.535156 -24.019531 22.574219 -24.957031 20.648438 -24.957031 L 11.070312 -24.980469 C 5.292969 -24.980469 2.40625 -22.019531 2.40625 -16.125 L 2.40625 -2.839844 C 2.40625 -0.914062 3.371094 0.046875 5.292969 0.046875 C 7.21875 0.046875 8.183594 -0.9375 8.183594 -2.886719 L 8.207031 -7.699219 L 17.761719 -7.675781 L 17.761719 -2.886719 C 17.761719 -0.9375 18.746094 0.046875 20.71875 0.046875 C 22.597656 0.046875 23.535156 -0.9375 23.535156 -2.886719 Z M 8.183594 -13.476562 L 8.183594 -16.246094 C 8.183594 -18.21875 9.167969 -19.203125 11.117188 -19.203125 L 17.761719 -19.203125 L 17.761719 -13.476562 Z M 8.183594 -13.476562 "/></g></g></g><g fill="#ffffff" fill-opacity="1"><g transform="translate(273.882391, 241.922028)"><g><path d="M 5.246094 0 C 7.195312 0 8.183594 -0.960938 8.183594 -2.910156 L 8.183594 -19.203125 L 14.921875 -19.203125 C 16.871094 -19.203125 17.855469 -18.21875 17.855469 -16.246094 L 17.855469 -2.886719 C 17.855469 -0.9375 18.820312 0.046875 20.746094 0.046875 C 22.667969 0.046875 23.632812 -0.914062 23.632812 -2.839844 L 23.632812 -16.125 C 23.632812 -22.019531 20.746094 -24.980469 14.96875 -24.980469 L 5.292969 -24.957031 C 3.371094 -24.957031 2.40625 -24.019531 2.40625 -22.117188 L 2.40625 -2.910156 C 2.40625 -0.960938 3.34375 0 5.246094 0 Z M 5.246094 0 "/></g></g></g></svg>